<?xml version="1.0" encoding="iso-8859-1"?>
<!-- Generator: Adobe Illustrator 19.0.0, SVG Export Plug-In . SVG Version: 6.00 Build 0)  -->
<svg version="1.1" id="Capa_1" xmlns="http://www.w3.org/2000/svg" xmlns:xlink="http://www.w3.org/1999/xlink" x="0px" y="0px"
	 viewBox="0 0 512.533 512.533" style="enable-background:new 0 0 512.533 512.533;" xml:space="preserve">
<path style="fill:#F3F3F3;" d="M509.918,472.533l-75.733-284.8c-2.133-8.533-9.6-14.933-19.2-17.067l-105.6-21.333
	c-3.2-1.067-6.4-1.067-9.6,0l-92.8,19.2c-3.2,1.067-6.4,1.067-9.6,0l-88.533-19.2c-10.667-2.133-24.533,5.333-27.733,16L2.184,425.6
	c-4.267,16,0,29.867,11.733,34.133l146.133,51.2c4.267,2.133,9.6,2.133,14.933,0l144-46.933c4.267-1.067,9.6-1.067,13.867,0
	l150.4,46.933C503.518,517.333,517.384,498.133,509.918,472.533z"/>
<polygon style="fill:#67C6B9;" points="171.784,472.533 29.918,425.6 100.318,165.333 200.584,188.8 "/>
<polygon style="fill:#FFD15D;" points="323.251,425.6 171.784,472.533 200.584,188.8 306.184,165.333 "/>
<polygon style="fill:#4ABAA5;" points="481.118,472.533 323.251,425.6 306.184,165.333 414.984,188.8 "/>
<path style="fill:#435B6C;" d="M141.918,0c-48,0-86.4,38.4-86.4,86.4c0,55.467,86.4,150.4,86.4,150.4s86.4-91.733,86.4-150.4
	C227.251,38.4,188.851,0,141.918,0z"/>
<circle style="fill:#FFFFFF;" cx="141.918" cy="86.4" r="48"/>
<path style="fill:#F3705B;" d="M409.651,137.6c-48,0-86.4,38.4-86.4,86.4c0,55.467,86.4,150.4,86.4,150.4s86.4-91.733,86.4-150.4
	C494.984,176,456.584,137.6,409.651,137.6z"/>
<circle style="fill:#FFFFFF;" cx="409.651" cy="224" r="48"/>
<g>
</g>
<g>
</g>
<g>
</g>
<g>
</g>
<g>
</g>
<g>
</g>
<g>
</g>
<g>
</g>
<g>
</g>
<g>
</g>
<g>
</g>
<g>
</g>
<g>
</g>
<g>
</g>
<g>
</g>
</svg>
